<svg width="140" height="60" viewBox="0 0 140 60" fill="none" xmlns="http://www.w3.org/2000/svg">
<circle cx="16" cy="16" r="16" transform="matrix(-1 0 0 1 86 0)" fill="white"/>
<path fill-rule="evenodd" clip-rule="evenodd" d="M54 16C54 24.8366 61.1634 32 70 32C78.8366 32 86 24.8366 86 16C86 7.16344 78.8366 0 70 0C61.1634 0 54 7.16344 54 16ZM66.452 14.3266C68.2193 15.8798 70.6249 16.9375 71.6068 17.2722C71.4729 21.0212 68.1925 22.0923 65.6486 21.4898C63.6134 21.0078 63.5063 18.6112 63.7071 17.4731C61.6318 17.4731 60.0251 22.8957 64.6444 24.4354C68.3398 25.6672 71.4951 23.6544 72.6109 22.494C73.749 23.8329 78.2343 23.8329 79.1716 21.0882C79.9214 18.8923 79.0823 17.4062 78.5691 16.9375C78.8368 18.9459 77.6318 20.017 76.5607 20.4187C75.7038 20.74 74.6862 20.1509 74.2845 19.8162C74.4631 19.5038 74.8335 18.33 74.8871 16.1342C74.9479 13.6385 75.839 12.4158 76.3525 11.7112C76.4037 11.6409 76.4512 11.5757 76.4937 11.515C76.9624 10.8455 80.7783 7.8999 82.6528 13.5233C84.5273 19.1468 79.3725 29.1217 70.2679 28.9878C61.1633 28.8539 57.8829 21.2221 57.3474 18.5443C56.8118 15.8664 57.2804 11.6488 59.4896 10.9124C61.6988 10.176 64.2428 12.3852 66.452 14.3266ZM79.1719 7.02902C77.0966 7.09596 72.7585 8.59555 72.0087 14.0583C70.8483 13.3442 69.0191 10.8611 72.0087 7.49764C74.6865 4.48493 77.9445 5.71242 79.1719 7.02902ZM67.3889 10.7784C67.7638 6.11899 71.1156 3.79374 72.7446 3.21355C71.1379 2.9904 67.5764 3.25372 66.1839 6.09221C64.7914 8.9307 66.407 10.399 67.3889 10.7784ZM64.176 4.3519C63.6627 4.79821 62.6228 6.13266 62.5693 7.90002C62.0114 7.67687 60.7082 7.36445 59.9584 7.90002C60.7394 6.94047 62.6764 4.88747 64.176 4.3519Z" fill="url(#paint0_radial_63_1057)"/>
<path d="M10.4662 40.9307H13.991L9.0207 46.9505L14.1692 53.2475H10.6049L5.59496 46.9505L10.4662 40.9307ZM2.14941 40.9307H5.27813V53.2475H2.14941V40.9307Z" fill="#2D2D2D"/>
<path d="M19.1089 43.6436H23.4653C24.5082 43.6436 25.0297 44.165 25.0297 45.2079V53.2475H21.9603V45.4257C21.9603 45.1749 21.9207 45.0099 21.8415 44.9307C21.7623 44.8515 21.5973 44.8119 21.3465 44.8119H18.693C18.231 44.8119 18 45.0231 18 45.4455V46.0396H17.9802V53.2475H14.9108V43.6436H17.9802V44.297C18.1386 43.8614 18.5148 43.6436 19.1089 43.6436Z" fill="#FF5789"/>
<path d="M33.6794 51.4653V45.4257C33.6794 45.1749 33.6398 45.0099 33.5606 44.9307C33.4814 44.8515 33.3164 44.8119 33.0655 44.8119H30.2338C29.9698 44.8119 29.7982 44.8515 29.719 44.9307C29.653 45.0099 29.62 45.1749 29.62 45.4257V51.4653C29.62 51.7294 29.653 51.901 29.719 51.9802C29.7982 52.0462 29.9698 52.0792 30.2338 52.0792H33.0655C33.3164 52.0792 33.4814 52.0462 33.5606 51.9802C33.6398 51.901 33.6794 51.7294 33.6794 51.4653ZM28.1348 43.6436H35.1645C36.2074 43.6436 36.7289 44.165 36.7289 45.2079V51.6832C36.7289 52.7261 36.2074 53.2475 35.1645 53.2475H28.1348C27.0919 53.2475 26.5705 52.7261 26.5705 51.6832V45.2079C26.5705 44.165 27.0919 43.6436 28.1348 43.6436Z" fill="#2D2D2D"/>
<path d="M48.1726 46.9901H45.1825V45.4257C45.1825 45.1749 45.1429 45.0099 45.0636 44.9307C44.9976 44.8515 44.8326 44.8119 44.5686 44.8119H41.9547C41.6907 44.8119 41.5191 44.8515 41.4399 44.9307C41.3739 45.0099 41.3409 45.1749 41.3409 45.4257V51.4653C41.3409 51.7294 41.3739 51.901 41.4399 51.9802C41.5191 52.0462 41.6907 52.0792 41.9547 52.0792H44.5686C44.8326 52.0792 44.9976 52.0462 45.0636 51.9802C45.1429 51.901 45.1825 51.7294 45.1825 51.4653V49.9406H48.1726V51.6832C48.1726 52.7261 47.6511 53.2475 46.6082 53.2475H39.8557C38.8128 53.2475 38.2914 52.7261 38.2914 51.6832V45.2079C38.2914 44.165 38.8128 43.6436 39.8557 43.6436H46.6082C47.6511 43.6436 48.1726 44.165 48.1726 45.2079V46.9901Z" fill="#2D2D2D"/>
<path d="M49.5127 53.2475V40H52.582V53.2475H49.5127ZM60.3246 43.6436L56.1464 48.396L60.3246 53.2475H56.9583L52.9187 48.396L56.9781 43.6436H60.3246Z" fill="#2D2D2D"/>
<path d="M60.7428 56V50.4554H64.0695V52L61.8319 56H60.7428Z" fill="#2D2D2D"/>
<path d="M77.7263 40.9307H82.9738L79.4887 46.9505L83.0135 53.2475H77.7659L74.4194 46.9505L77.7263 40.9307ZM69.4887 40.9307H74.3798V53.2475H69.4887V40.9307Z" fill="#2D2D2D"/>
<path d="M89.2161 43.6436H93.1765C94.2194 43.6436 94.7408 44.165 94.7408 45.2079V53.2475H89.9884V45.4257C89.9884 45.1749 89.9488 45.0099 89.8696 44.9307C89.7904 44.8515 89.6253 44.8119 89.3745 44.8119H88.8201C88.3184 44.8119 88.0676 45.0033 88.0676 45.3861V53.2475H83.3151V43.6436H88.0676V44.1584C88.2524 43.8152 88.6352 43.6436 89.2161 43.6436Z" fill="#FF5789"/>
<path d="M102.346 51.4653V45.4257C102.346 45.1749 102.307 45.0099 102.228 44.9307C102.148 44.8515 101.983 44.8119 101.733 44.8119H100.98C100.729 44.8119 100.564 44.8515 100.485 44.9307C100.406 45.0099 100.366 45.1749 100.366 45.4257V51.4653C100.366 51.7294 100.406 51.901 100.485 51.9802C100.564 52.0462 100.729 52.0792 100.98 52.0792H101.733C101.983 52.0792 102.148 52.0462 102.228 51.9802C102.307 51.901 102.346 51.7294 102.346 51.4653ZM97.1782 43.6436H105.535C106.578 43.6436 107.099 44.165 107.099 45.2079V51.6832C107.099 52.7261 106.578 53.2475 105.535 53.2475H97.1782C96.1353 53.2475 95.6138 52.7261 95.6138 51.6832V45.2079C95.6138 44.165 96.1353 43.6436 97.1782 43.6436Z" fill="#2D2D2D"/>
<path d="M119.181 47.2475H114.587V45.4257C114.587 45.1749 114.547 45.0099 114.468 44.9307C114.389 44.8515 114.224 44.8119 113.973 44.8119H113.339C113.088 44.8119 112.923 44.8515 112.844 44.9307C112.765 45.0099 112.725 45.1749 112.725 45.4257V51.4653C112.725 51.7294 112.765 51.901 112.844 51.9802C112.923 52.0462 113.088 52.0792 113.339 52.0792H113.973C114.224 52.0792 114.389 52.0462 114.468 51.9802C114.547 51.901 114.587 51.7294 114.587 51.4653V49.703H119.181V51.6832C119.181 52.7261 118.659 53.2475 117.616 53.2475H109.537C108.494 53.2475 107.973 52.7261 107.973 51.6832V45.2079C107.973 44.165 108.494 43.6436 109.537 43.6436H117.616C118.659 43.6436 119.181 44.165 119.181 45.2079V47.2475Z" fill="#2D2D2D"/>
<path d="M119.87 40H124.623V53.2475H119.87V40ZM131.989 43.6436L129.197 48.396L131.989 53.2475H127.236L124.623 48.396L127.276 43.6436H131.989Z" fill="#2D2D2D"/>
<path d="M132.347 40.9307H137.852L137.02 48.9703H133.198L132.347 40.9307ZM132.584 53.2475V50.297H137.614V53.2475H132.584Z" fill="#2D2D2D"/>
<defs>
<radialGradient id="paint0_radial_63_1057" cx="0" cy="0" r="1" gradientUnits="userSpaceOnUse" gradientTransform="translate(85.1579 -8.69736) rotate(121.304) scale(36.4667 36.7921)">
<stop stop-color="#FEDB7A"/>
<stop offset="1" stop-color="#FF5789"/>
</radialGradient>
</defs>
</svg>
